<svg width="197" height="38" viewBox="0 0 197 38" fill="none" xmlns="http://www.w3.org/2000/svg">
<path d="M11.04 29.4C8.77333 29.4 6.82667 29.0133 5.2 28.24C3.6 27.4667 2.14667 26.3067 0.84 24.76L4.44 21.16C5.26667 22.2533 6.22667 23.1067 7.32 23.72C8.41333 24.3067 9.74667 24.6 11.32 24.6C12.7333 24.6 13.8533 24.32 14.68 23.76C15.5333 23.2 15.96 22.4267 15.96 21.44C15.96 20.5867 15.72 19.8933 15.24 19.36C14.76 18.8267 14.12 18.3733 13.32 18C12.5467 17.6267 11.68 17.2933 10.72 17C9.78667 16.68 8.84 16.32 7.88 15.92C6.94667 15.52 6.08 15.0267 5.28 14.44C4.50667 13.8267 3.88 13.0533 3.4 12.12C2.92 11.16 2.68 9.96 2.68 8.52C2.68 6.81333 3.09333 5.36 3.92 4.16C4.74667 2.96 5.88 2.04 7.32 1.4C8.76 0.759998 10.3867 0.439998 12.2 0.439998C14.12 0.439998 15.8533 0.799998 17.4 1.52C18.9467 2.24 20.2133 3.17333 21.2 4.32L17.6 7.92C16.7733 7.01333 15.92 6.34667 15.04 5.92C14.1867 5.49333 13.2133 5.28 12.12 5.28C10.8667 5.28 9.88 5.52 9.16 6C8.44 6.48 8.08 7.17333 8.08 8.08C8.08 8.85333 8.32 9.48 8.8 9.96C9.28 10.44 9.90667 10.8533 10.68 11.2C11.48 11.5467 12.3467 11.88 13.28 12.2C14.24 12.52 15.1867 12.88 16.12 13.28C17.08 13.68 17.9467 14.2 18.72 14.84C19.52 15.48 20.16 16.3067 20.64 17.32C21.12 18.3067 21.36 19.5333 21.36 21C21.36 23.6133 20.44 25.6667 18.6 27.16C16.76 28.6533 14.24 29.4 11.04 29.4ZM34.0572 29.4C32.0839 29.4 30.3105 28.96 28.7372 28.08C27.1639 27.2 25.9239 26 25.0172 24.48C24.1105 22.96 23.6572 21.2533 23.6572 19.36C23.6572 17.44 24.1105 15.72 25.0172 14.2C25.9239 12.68 27.1639 11.48 28.7372 10.6C30.3372 9.69333 32.1105 9.24 34.0572 9.24C35.5772 9.24 36.9772 9.52 38.2572 10.08C39.5372 10.64 40.6439 11.44 41.5772 12.48L38.2172 15.88C37.7105 15.32 37.0972 14.8933 36.3772 14.6C35.6839 14.3067 34.9105 14.16 34.0572 14.16C33.0972 14.16 32.2305 14.3867 31.4572 14.84C30.7105 15.2667 30.1105 15.8667 29.6572 16.64C29.2305 17.3867 29.0172 18.28 29.0172 19.32C29.0172 20.3333 29.2305 21.24 29.6572 22.04C30.1105 22.8133 30.7105 23.4267 31.4572 23.88C32.2305 24.3067 33.0972 24.52 34.0572 24.52C34.9372 24.52 35.7239 24.3733 36.4172 24.08C37.1372 23.76 37.7505 23.3067 38.2572 22.72L41.6572 26.12C40.6705 27.1867 39.5372 28 38.2572 28.56C36.9772 29.12 35.5772 29.4 34.0572 29.4ZM44.6247 29V9.68H49.8647V29H44.6247ZM49.8647 18.32L47.8247 16.96C48.0647 14.5867 48.758 12.72 49.9047 11.36C51.0514 9.97333 52.7047 9.28 54.8647 9.28C55.798 9.28 56.638 9.44 57.3847 9.76C58.1314 10.0533 58.8114 10.5467 59.4247 11.24L56.1447 15C55.8514 14.68 55.4914 14.44 55.0647 14.28C54.6647 14.12 54.198 14.04 53.6647 14.04C52.5447 14.04 51.6247 14.4 50.9047 15.12C50.2114 15.8133 49.8647 16.88 49.8647 18.32ZM68.7984 29.4C67.0384 29.4 65.4518 28.96 64.0384 28.08C62.6251 27.2 61.5184 26 60.7184 24.48C59.9184 22.96 59.5184 21.2533 59.5184 19.36C59.5184 17.44 59.9184 15.72 60.7184 14.2C61.5184 12.68 62.6251 11.48 64.0384 10.6C65.4518 9.72 67.0384 9.28 68.7984 9.28C70.1851 9.28 71.4251 9.56 72.5184 10.12C73.6118 10.68 74.4784 11.4667 75.1184 12.48C75.7851 13.4667 76.1451 14.5867 76.1984 15.84V22.8C76.1451 24.08 75.7851 25.2133 75.1184 26.2C74.4784 27.1867 73.6118 27.9733 72.5184 28.56C71.4251 29.12 70.1851 29.4 68.7984 29.4ZM69.7584 24.56C71.2251 24.56 72.4118 24.08 73.3184 23.12C74.2251 22.1333 74.6784 20.8667 74.6784 19.32C74.6784 18.3067 74.4651 17.4133 74.0384 16.64C73.6384 15.84 73.0651 15.2267 72.3184 14.8C71.5984 14.3467 70.7451 14.12 69.7584 14.12C68.7984 14.12 67.9451 14.3467 67.1984 14.8C66.4784 15.2267 65.9051 15.84 65.4784 16.64C65.0784 17.4133 64.8784 18.3067 64.8784 19.32C64.8784 20.36 65.0784 21.28 65.4784 22.08C65.9051 22.8533 66.4784 23.4667 67.1984 23.92C67.9451 24.3467 68.7984 24.56 69.7584 24.56ZM74.3984 29V23.8L75.2384 19.08L74.3984 14.44V9.68H79.5984V29H74.3984ZM94.9541 29.4C93.5674 29.4 92.3141 29.12 91.1941 28.56C90.0741 27.9733 89.1807 27.1867 88.5141 26.2C87.8474 25.2133 87.4874 24.08 87.4341 22.8V15.96C87.4874 14.68 87.8474 13.5467 88.5141 12.56C89.2074 11.5467 90.1007 10.7467 91.1941 10.16C92.3141 9.57333 93.5674 9.28 94.9541 9.28C96.7407 9.28 98.3407 9.72 99.7541 10.6C101.167 11.48 102.274 12.68 103.074 14.2C103.901 15.72 104.314 17.44 104.314 19.36C104.314 21.2533 103.901 22.96 103.074 24.48C102.274 26 101.167 27.2 99.7541 28.08C98.3407 28.96 96.7407 29.4 94.9541 29.4ZM94.0341 24.56C94.9941 24.56 95.8474 24.3467 96.5941 23.92C97.3407 23.4667 97.9141 22.8533 98.3141 22.08C98.7407 21.28 98.9541 20.36 98.9541 19.32C98.9541 18.3067 98.7407 17.4133 98.3141 16.64C97.9141 15.84 97.3407 15.2267 96.5941 14.8C95.8474 14.3467 94.9941 14.12 94.0341 14.12C93.1007 14.12 92.2607 14.3467 91.5141 14.8C90.7674 15.2267 90.1807 15.84 89.7541 16.64C89.3541 17.4133 89.1541 18.3067 89.1541 19.32C89.1541 20.36 89.3541 21.28 89.7541 22.08C90.1807 22.8533 90.7541 23.4667 91.4741 23.92C92.2207 24.3467 93.0741 24.56 94.0341 24.56ZM84.2341 37.08V9.68H89.4741V14.76L88.5941 19.44L89.4341 24.12V37.08H84.2341ZM115.43 29L106.31 0.88H111.67L118.43 22.52H116.63L123.27 0.88H127.31L133.95 22.52H132.11L138.91 0.88H144.27L135.11 29H131.07L124.39 7.4H126.15L119.51 29H115.43ZM153.861 29.4C151.914 29.4 150.154 28.96 148.581 28.08C147.034 27.1733 145.794 25.96 144.861 24.44C143.954 22.8933 143.501 21.1733 143.501 19.28C143.501 17.3867 143.954 15.6933 144.861 14.2C145.768 12.68 147.008 11.48 148.581 10.6C150.154 9.69333 151.901 9.24 153.821 9.24C155.794 9.24 157.554 9.69333 159.101 10.6C160.674 11.48 161.914 12.68 162.821 14.2C163.728 15.6933 164.181 17.3867 164.181 19.28C164.181 21.1733 163.728 22.8933 162.821 24.44C161.914 25.96 160.674 27.1733 159.101 28.08C157.554 28.96 155.808 29.4 153.861 29.4ZM153.821 24.52C154.808 24.52 155.674 24.3067 156.421 23.88C157.194 23.4267 157.781 22.8133 158.181 22.04C158.608 21.24 158.821 20.3333 158.821 19.32C158.821 18.3067 158.608 17.4133 158.181 16.64C157.754 15.8667 157.168 15.2667 156.421 14.84C155.674 14.3867 154.808 14.16 153.821 14.16C152.861 14.16 152.008 14.3867 151.261 14.84C150.514 15.2667 149.928 15.8667 149.501 16.64C149.074 17.4133 148.861 18.3067 148.861 19.32C148.861 20.3333 149.074 21.24 149.501 22.04C149.928 22.8133 150.514 23.4267 151.261 23.88C152.008 24.3067 152.861 24.52 153.821 24.52ZM167.554 29V0.079998H172.794V29H167.554ZM185.517 29.4C183.757 29.4 182.171 28.96 180.757 28.08C179.344 27.2 178.237 26 177.437 24.48C176.637 22.96 176.237 21.2533 176.237 19.36C176.237 17.44 176.637 15.72 177.437 14.2C178.237 12.68 179.344 11.48 180.757 10.6C182.171 9.72 183.757 9.28 185.517 9.28C186.904 9.28 188.144 9.56 189.237 10.12C190.331 10.68 191.197 11.4667 191.837 12.48C192.504 13.4667 192.864 14.5867 192.917 15.84V22.8C192.864 24.08 192.504 25.2133 191.837 26.2C191.197 27.1867 190.331 27.9733 189.237 28.56C188.144 29.12 186.904 29.4 185.517 29.4ZM186.477 24.56C187.944 24.56 189.131 24.08 190.037 23.12C190.944 22.1333 191.397 20.8667 191.397 19.32C191.397 18.3067 191.184 17.4133 190.757 16.64C190.357 15.84 189.784 15.2267 189.037 14.8C188.317 14.3467 187.464 14.12 186.477 14.12C185.517 14.12 184.664 14.3467 183.917 14.8C183.197 15.2267 182.624 15.84 182.197 16.64C181.797 17.4133 181.597 18.3067 181.597 19.32C181.597 20.36 181.797 21.28 182.197 22.08C182.624 22.8533 183.197 23.4667 183.917 23.92C184.664 24.3467 185.517 24.56 186.477 24.56ZM191.117 29V23.8L191.957 19.08L191.117 14.44V9.68H196.317V29H191.117Z" fill="#363636" fill-opacity="0.8"/>
</svg>
