<svg
  width="264"
  height="28"
  viewBox="0 0 264 28"
  fill="none"
  xmlns="http://www.w3.org/2000/svg"
>
  <path
    d="M18.0304 0.354431H0V4.25317H12.6764L0 24.2194V27.7243H18.0304V23.8256H5.31463L18.0304 3.85935V0.354431Z"
    fill="#424242"
  />
  <path
    d="M49.3913 13.9803C49.3913 5.78903 43.2106 0 35.4158 0C27.6997 0 21.4403 5.78903 21.4403 13.9803C21.4403 22.211 27.6997 28 35.4158 28C43.2106 28 49.3913 22.211 49.3913 13.9803ZM26.0463 13.9803C26.0463 7.79747 29.9831 3.93812 35.4158 3.93812C40.8485 3.93812 44.7853 7.79747 44.7853 13.9803C44.7853 20.1632 40.8485 24.1013 35.4158 24.1013C29.9831 24.1013 26.0463 20.1632 26.0463 13.9803Z"
    fill="#424242"
  />
  <path
    d="M80.2626 13.9803C80.2626 5.78903 74.0819 0 66.2871 0C58.5711 0 52.3116 5.78903 52.3116 13.9803C52.3116 22.211 58.5711 28 66.2871 28C74.0819 28 80.2626 22.211 80.2626 13.9803ZM56.9176 13.9803C56.9176 7.79747 60.8544 3.93812 66.2871 3.93812C71.7198 3.93812 75.6566 7.79747 75.6566 13.9803C75.6566 20.1632 71.7198 24.1013 66.2871 24.1013C60.8544 24.1013 56.9176 20.1632 56.9176 13.9803Z"
    fill="#424242"
  />
  <path
    d="M99.7961 0.31505H84.6789V27.7243H99.7961V24.0619H89.1668V15.6737H98.615V12.0113H89.1668V3.9775H99.7961V0.31505Z"
    fill="#424242"
  />
  <path
    d="M117.803 0C110.087 0 103.828 5.78903 103.828 13.9803C103.828 22.211 110.087 27.9606 117.803 27.9606C125.165 27.9606 130.519 22.5654 131.346 16.225V12.7201H116.268V16.3038H126.543C125.874 20.9114 122.764 23.9044 117.803 23.9044C112.371 23.9044 108.434 20.0056 108.434 13.9803C108.434 7.955 112.371 4.09564 117.803 4.09564C121.071 4.09564 123.669 5.47398 125.126 8.23066H130.519C128.433 2.87483 123.512 0 117.803 0Z"
    fill="#424242"
  />
  <path
    d="M154.236 27.7243H158.96L149.157 0.31505H143.961L134.158 27.7243H138.843L140.811 22.1322H152.267L154.236 27.7243ZM151.008 18.4698H142.071L146.559 5.74965L151.008 18.4698Z"
    fill="#424242"
  />
  <path
    d="M163.222 0.354431V27.7243H176.961V24.1013H167.71V0.354431H163.222Z"
    fill="#424242"
  />
  <path
    d="M180.714 0.354431V27.7243H194.454V24.1013H185.202V0.354431H180.714Z"
    fill="#424242"
  />
  <path
    d="M213.324 0.31505H198.207V27.7243H213.324V24.0619H202.695V15.6737H212.143V12.0113H202.695V3.9775H213.324V0.31505Z"
    fill="#424242"
  />
  <path
    d="M233.378 8.54571C233.378 11.263 231.804 13.1927 228.3 13.1927H223.34V4.01688H228.3C231.804 4.01688 233.378 5.78903 233.378 8.54571ZM218.852 0.354431V27.7243H223.34V16.7764H226.765L233.064 27.7243H238.418L231.646 16.3826C236.252 15.2405 237.984 11.775 237.984 8.54571C237.984 4.09564 234.796 0.354431 228.3 0.354431H218.852Z"
    fill="#424242"
  />
  <path
    d="M250.458 17.8003V27.7243H254.945V17.8003L264 0.354431H259.04L252.701 13.7834L246.363 0.354431H241.364L250.458 17.8003Z"
    fill="#424242"
  />
</svg>
